

                Rychly Prachy (PRAHA - 21.04.2012) - Nikola

  Without advertising!

Screen:          http://image.bayimg.com/eaocpaade.jpg
Oficial website: http://rychlyprachy.cz
Direct Link:     http://rychlyprachy.cz/video60.cz.html



General
Complete name                            : Rychly Prachy (PRAHA - 21.04.2012) - Nikola.wmv
Format                                   : Windows Media
File size                                : 309 MiB
Duration                                 : 16mn 23s
Overall bit rate mode                    : Constant
Overall bit rate                         : 2 634 Kbps
Maximum Overall bit rate                 : 2 645 Kbps
Encoded date                             : UTC 2012-04-20 23:40:52.580
SfOriginalFPS                            : 300000

Video
ID                                       : 2
Format                                   : VC-1
Format profile                           : MP@ML
Codec ID                                 : WMV3
Codec ID/Info                            : Windows Media Video 9
Codec ID/Hint                            : WMV3
Description of the codec                 : Windows Media Video 9 - Professional
Duration                                 : 16mn 23s
Bit rate mode                            : Constant
Bit rate                                 : 2 525 Kbps
Width                                    : 640 pixels
Height                                   : 480 pixels
Display aspect ratio                     : 4:3
Frame rate                               : 30.000 fps
Bit depth                                : 8 bits
Scan type                                : Progressive
Compression mode                         : Lossy
Bits/(Pixel*Frame)                       : 0.274
Stream size                              : 296 MiB (96%)
Language                                 : Czech

Audio
ID                                       : 1
Format                                   : WMA
Format version                           : Version 2
Codec ID                                 : 161
Codec ID/Info                            : Windows Media Audio
Description of the codec                 : Windows Media Audio 9.2 -  96 kbps, 44 kHz, stereo (A/V) 1-pass CBR
Duration                                 : 16mn 23s
Bit rate mode                            : Constant
Bit rate                                 : 96.0 Kbps
Channel(s)                               : 2 channels
Sampling rate                            : 44.1 KHz
Bit depth                                : 16 bits
Stream size                              : 11.3 MiB (4%)
Language                                 : Czech







